<svg height="300px" width="300px" fill="#000000" xmlns="http://www.w3.org/2000/svg" data-name="Layer 2" viewBox="0 0 32 32" x="0px" y="0px"><title>Extra-Icon</title><path d="M29.22,2.78a2.62,2.62,0,0,0-2.87-.59L3.67,11.27a2.66,2.66,0,0,0,.31,5l8.77,2.31a.89.89,0,0,1,.63.63L15.69,28a2.62,2.62,0,0,0,2.4,2h.18a2.62,2.62,0,0,0,2.46-1.67L29.8,5.65A2.62,2.62,0,0,0,29.22,2.78ZM28.16,5,19.09,27.67a.89.89,0,0,1-1.68-.1h0L15.1,18.79a2.61,2.61,0,0,0-.19-.45L20,13.26A.89.89,0,0,0,18.75,12l-5.08,5.08a2.62,2.62,0,0,0-.45-.19L4.43,14.59a.89.89,0,0,1-.1-1.68L27,3.84A.88.88,0,0,1,28,4,.87.87,0,0,1,28.16,5Z"/></svg>