<?xml version="1.0" encoding="UTF-8"?>
<svg width="752pt" height="752pt" version="1.1" viewBox="0 0 752 752" xmlns="http://www.w3.org/2000/svg">
 <path d="m512.16 341.68v-42.637c0-65.281-53.113-118.39-118.39-118.39h-35.52c-65.281 0-118.39 53.113-118.39 118.39v42.633c-26.988 5.5039-47.359 29.418-47.359 58.004v23.68c0 28.668 20.496 52.633 47.602 58.043 2.5039 50.004 43.852 89.953 94.473 89.953h41.438c0.81641 0 1.6172-0.082031 2.3867-0.24219 4.625-0.94531 8.2656-4.5859 9.2109-9.2109 0.16016-0.77344 0.24219-1.5703 0.24219-2.3867s-0.082032-1.6172-0.24219-2.3867c-0.94531-4.625-4.5859-8.2656-9.2109-9.2109-0.76953-0.16016-1.5703-0.24219-2.3867-0.24219h-41.438c-37.176 0-67.723-28.723-70.734-65.137 19.445-0.16016 35.215-16.012 35.215-35.5v-71.039c0-19.59-15.93-35.52-35.52-35.52v-29.598c0-39.172 42.492-71.039 94.715-71.039h35.52c52.223 0 94.715 31.867 94.715 71.039v29.598c-19.59 0-35.52 15.93-35.52 35.52v71.039c0 19.59 15.93 35.52 35.52 35.52h11.84c32.641 0 59.199-26.555 59.199-59.199v-23.68c0.003906-28.586-20.367-52.5-47.355-58z"/>
</svg>
