<svg height="300px" width="300px" fill="#000000" xmlns="http://www.w3.org/2000/svg" viewBox="0 0 64 64" x="0px" y="0px"><g data-name="Layer 15"><path d="M40.1,33.51a11.78,11.78,0,0,0-16.2,0l-9.77,9.24c-5.6,5.09-1.56,14.82,6,14.44,4.1-.11,7.43-2.21,11.86-2.13,4.59-.08,8,1.77,12.12,2.13,7.43.17,11.27-9.45,5.75-14.44Z"/><path d="M56.92,19.93c-3.82-.75-6.74,3.5-7.5,7.16-2.28,11.33,8.7,13.49,11.27,2.5C61.74,24.88,60.08,20.63,56.92,19.93Z"/><path d="M40.73,26.05c3.8,0,6.89-4.32,6.89-9.62-.38-12.76-13.4-12.76-13.77,0C33.85,21.73,36.94,26.05,40.73,26.05Z"/><path d="M14.58,27.09c-.75-3.66-3.68-7.91-7.5-7.16C0,21.72,3,36.81,9.92,36.85,13.84,36.72,15.65,32.17,14.58,27.09Z"/><path d="M23.27,26.05c3.79,0,6.88-4.32,6.88-9.62-.37-12.76-13.39-12.76-13.77,0C16.38,21.73,19.47,26.05,23.27,26.05Z"/></g></svg>