<svg height="300px" width="300px" fill="#000000" xmlns="http://www.w3.org/2000/svg" xmlns:xlink="http://www.w3.org/1999/xlink" version="1.1" x="0px" y="0px" viewBox="0 0 48 48" enable-background="new 0 0 48 48" xml:space="preserve"><g><path d="M46.635,3.654c-0.106-1.12-0.981-2.013-2.1-2.143L31.636,0.015c-1.311-0.147-2.492,0.787-2.645,2.095   c-0.151,1.309,0.787,2.492,2.096,2.645l7.998,0.927L28.757,16.009c-3.089-2.362-6.837-3.659-10.792-3.659   c-4.761,0-9.237,1.854-12.604,5.221c-6.95,6.951-6.95,18.259,0,25.208C8.728,46.146,13.204,48,17.965,48   c4.761,0,9.237-1.854,12.604-5.221c3.367-3.366,5.222-7.843,5.222-12.604c0-3.955-1.297-7.703-3.66-10.792L42.367,9.147   l0.724,7.568c0.117,1.235,1.156,2.159,2.371,2.159c0.076,0,0.153-0.003,0.23-0.011c1.311-0.125,2.273-1.29,2.147-2.602   L46.635,3.654z M17.729,43.374c-7.301,0-13.22-5.92-13.22-13.221c0-7.302,5.919-13.221,13.22-13.221   c7.303,0,13.221,5.919,13.221,13.221C30.95,37.454,25.032,43.374,17.729,43.374z"/></g></svg>